<svg width="178" height="34" viewBox="0 0 178 34" fill="none" xmlns="http://www.w3.org/2000/svg">
<path d="M4.66504 5.72266L5.10938 7.70508V25H0.939453V5.72266H4.66504ZM20.7979 5.51758C21.5726 5.51758 22.3018 5.67708 22.9854 5.99609C23.6689 6.29232 24.2614 6.72526 24.7627 7.29492C25.2868 7.86458 25.6855 8.54818 25.959 9.3457C26.2552 10.1204 26.4033 10.9635 26.4033 11.875V25H22.3018V14.5068C22.3018 13.7321 22.2904 13.0029 22.2676 12.3193C22.2676 11.613 22.1992 10.9863 22.0625 10.4395C21.9258 9.89258 21.6979 9.47103 21.3789 9.1748C21.0827 8.85579 20.6156 8.69629 19.9775 8.69629C19.818 8.69629 19.4762 8.73047 18.9521 8.79883C18.4281 8.86719 17.8242 9.06087 17.1406 9.37988V6.67969C17.7559 6.3151 18.3825 6.03027 19.0205 5.8252C19.6585 5.62012 20.251 5.51758 20.7979 5.51758ZM14.8848 8.14941C15.1582 8.55957 15.3519 9.00391 15.4658 9.48242C15.6025 9.93815 15.6823 10.4167 15.7051 10.918C15.7507 11.4193 15.762 11.9434 15.7393 12.4902C15.7393 13.0143 15.7393 13.5726 15.7393 14.165V25H11.6035V14.5068C11.6035 13.7321 11.6035 13.0029 11.6035 12.3193C11.6035 11.613 11.5352 10.9863 11.3984 10.4395C11.2617 9.89258 11.0339 9.47103 10.7148 9.1748C10.3958 8.85579 9.92871 8.69629 9.31348 8.69629C9.04004 8.69629 8.62988 8.75326 8.08301 8.86719C7.55892 8.95833 7.03483 9.12923 6.51074 9.37988V6.67969C7.05762 6.36068 7.63867 6.09863 8.25391 5.89355C8.89193 5.68848 9.51855 5.58594 10.1338 5.58594C11.182 5.58594 12.0592 5.80241 12.7656 6.23535C13.4948 6.66829 14.2012 7.30632 14.8848 8.14941ZM50.876 5.72266C49.6227 9.07227 48.5062 12.0459 47.5264 14.6436C46.5465 17.2184 45.6921 19.4857 44.9629 21.4453C44.2337 23.3822 43.5843 25.0228 43.0146 26.3672C42.4678 27.7116 41.9551 28.8281 41.4766 29.7168C41.0208 30.6283 40.5879 31.3346 40.1777 31.8359C39.7676 32.36 39.346 32.7588 38.9131 33.0322C38.4801 33.3057 38.0016 33.4652 37.4775 33.5107C36.9762 33.5791 36.3952 33.6133 35.7344 33.6133C35.5293 33.6133 35.29 33.5791 35.0166 33.5107C34.7432 33.4652 34.4697 33.3968 34.1963 33.3057C33.9456 33.2373 33.7178 33.1576 33.5127 33.0664C33.3076 32.998 33.1709 32.9525 33.1025 32.9297C33.1937 32.5195 33.2848 32.1322 33.376 31.7676C33.4443 31.4486 33.5127 31.141 33.5811 30.8447C33.6722 30.5713 33.7406 30.3776 33.7861 30.2637C33.9684 30.2637 34.2419 30.3206 34.6064 30.4346C34.9938 30.5485 35.2786 30.6055 35.4609 30.6055C35.8255 30.6055 36.1445 30.5827 36.418 30.5371C36.7142 30.5143 36.9762 30.4118 37.2041 30.2295C37.432 30.07 37.6484 29.8193 37.8535 29.4775C38.0586 29.1585 38.2865 28.6914 38.5371 28.0762L39.8359 25L46.7061 5.72266H50.876ZM39.1182 23.1885L31.9404 5.72266H36.0762L40.998 18.6768L40.5195 19.8389L39.1182 23.1885ZM64.1719 11.2256C64.1719 10.3597 64.3314 9.58496 64.6504 8.90137C64.9694 8.19499 65.4137 7.60254 65.9834 7.12402C66.5531 6.62272 67.1911 6.23535 67.8975 5.96191C68.6266 5.66569 69.3786 5.4834 70.1533 5.41504V8.83301C69.5609 8.94694 69.0938 9.1862 68.752 9.55078C68.4329 9.91536 68.2734 10.4281 68.2734 11.0889C68.2734 11.6357 68.4443 12.0801 68.7861 12.4219C69.1507 12.7409 69.6064 13.0257 70.1533 13.2764V16.9336C69.766 16.8197 69.3672 16.6943 68.957 16.5576C68.5697 16.3981 68.1823 16.2272 67.7949 16.0449C66.5872 15.4069 65.6758 14.7347 65.0605 14.0283C64.4681 13.3219 64.1719 12.3877 64.1719 11.2256ZM75.5879 9.79004C74.9727 9.47103 74.3118 9.23177 73.6055 9.07227C72.9219 8.91276 72.2383 8.81022 71.5547 8.76465V5.38086C72.5801 5.42643 73.5257 5.57454 74.3916 5.8252C75.2575 6.05306 76.1006 6.42904 76.9209 6.95312L75.5879 9.79004ZM65.9834 20.6934C66.4391 21.0124 66.9746 21.3086 67.5898 21.582C68.2279 21.8555 69.0254 21.9922 69.9824 21.9922H70.1533V25.1709C69.5837 25.1709 69.0596 25.1481 68.5811 25.1025C68.1025 25.0798 67.624 25.0114 67.1455 24.8975C66.6898 24.7607 66.2227 24.5785 65.7441 24.3506C65.2656 24.1227 64.7643 23.8265 64.2402 23.4619L65.9834 20.6934ZM71.5547 13.8232C72.2383 14.0511 72.9333 14.3018 73.6396 14.5752C74.346 14.8486 74.984 15.1904 75.5537 15.6006C76.1462 16.0107 76.6247 16.5234 76.9893 17.1387C77.3766 17.7311 77.5703 18.4831 77.5703 19.3945C77.5703 20.2832 77.4108 21.0579 77.0918 21.7188C76.7728 22.3796 76.3398 22.9492 75.793 23.4277C75.2689 23.9062 74.6423 24.2822 73.9131 24.5557C73.1839 24.8291 72.3978 25.0114 71.5547 25.1025V21.8555C72.3294 21.7188 72.9219 21.4795 73.332 21.1377C73.765 20.7731 73.9814 20.2946 73.9814 19.7021C73.9814 19.1097 73.7422 18.654 73.2637 18.335C72.8079 17.9932 72.2383 17.6969 71.5547 17.4463V13.8232ZM88.4395 19.1553C88.4395 19.93 88.542 20.5339 88.7471 20.9668C88.9521 21.3997 89.237 21.7301 89.6016 21.958C89.9889 22.1859 90.4105 22.334 90.8662 22.4023C91.3447 22.4479 91.846 22.4707 92.3701 22.4707V25C92.0739 25.0456 91.7777 25.0798 91.4814 25.1025C91.2308 25.1253 90.9232 25.1367 90.5586 25.1367C90.2168 25.1595 89.875 25.1709 89.5332 25.1709C89.1914 25.1709 88.8382 25.1595 88.4736 25.1367C88.1318 25.1139 87.8356 25.0798 87.585 25.0342C86.8102 24.8975 86.2064 24.5671 85.7734 24.043C85.3405 23.4961 85.0101 22.9036 84.7822 22.2656C84.5771 21.6048 84.4404 20.9668 84.3721 20.3516C84.3265 19.7363 84.3037 19.2578 84.3037 18.916V8.52539H81.7744V5.72266H84.3037V0.253906H88.4395V5.72266H91.5156V8.52539H88.4395V19.1553ZM106.281 5.62012C107.535 5.68848 108.674 5.99609 109.699 6.54297C110.725 7.06706 111.579 7.77344 112.263 8.66211C112.969 9.52799 113.516 10.542 113.903 11.7041C114.291 12.8662 114.484 14.1081 114.484 15.4297C114.484 16.7513 114.279 17.9932 113.869 19.1553C113.482 20.2946 112.935 21.2972 112.229 22.1631C111.522 23.0062 110.656 23.6898 109.631 24.2139C108.605 24.738 107.489 25.0456 106.281 25.1367V21.8555C107.421 21.6048 108.343 20.887 109.05 19.7021C109.779 18.5173 110.144 17.0931 110.144 15.4297C110.144 14.5866 110.052 13.8005 109.87 13.0713C109.711 12.3193 109.46 11.6471 109.118 11.0547C108.776 10.4622 108.366 9.97233 107.888 9.58496C107.409 9.19759 106.874 8.94694 106.281 8.83301V5.62012ZM96.7451 15.3613C96.7451 14.0397 96.9388 12.8092 97.3262 11.6699C97.7135 10.5306 98.2604 9.53939 98.9668 8.69629C99.696 7.8304 100.562 7.13542 101.564 6.61133C102.567 6.08724 103.672 5.76823 104.88 5.6543V8.83301C103.741 9.08366 102.829 9.80143 102.146 10.9863C101.462 12.1712 101.12 13.5954 101.12 15.2588C101.12 16.1019 101.2 16.8994 101.359 17.6514C101.542 18.4033 101.792 19.0755 102.111 19.668C102.43 20.2604 102.818 20.7503 103.273 21.1377C103.752 21.5251 104.287 21.7643 104.88 21.8555V25.1367C103.627 25.0456 102.499 24.738 101.496 24.2139C100.493 23.667 99.639 22.9606 98.9326 22.0947C98.2262 21.2288 97.6794 20.2148 97.292 19.0527C96.9274 17.8906 96.7451 16.6602 96.7451 15.3613ZM123.542 5.72266L123.986 7.6709V25H119.851V5.72266H123.542ZM134.206 7.8418C134.593 8.22917 134.89 8.6849 135.095 9.20898C135.323 9.71029 135.482 10.2458 135.573 10.8154C135.687 11.3623 135.756 11.9206 135.778 12.4902C135.801 13.0599 135.812 13.6182 135.812 14.165V24.3164V25H131.643V14.5068C131.643 13.7321 131.608 12.9915 131.54 12.2852C131.472 11.5788 131.312 10.9521 131.062 10.4053C130.811 9.8584 130.469 9.43685 130.036 9.14062C129.603 8.82161 128.999 8.66211 128.225 8.66211C127.906 8.66211 127.473 8.71908 126.926 8.83301C126.402 8.92415 125.889 9.08366 125.388 9.31152V6.67969C126.003 6.36068 126.664 6.08724 127.37 5.85938C128.099 5.63151 128.806 5.51758 129.489 5.51758C130.515 5.51758 131.381 5.73405 132.087 6.16699C132.793 6.57715 133.5 7.13542 134.206 7.8418ZM150.476 5.55176C151.706 5.66569 152.811 5.99609 153.791 6.54297C154.794 7.08984 155.648 7.79622 156.354 8.66211C157.061 9.52799 157.596 10.5192 157.961 11.6357C158.348 12.7523 158.542 13.9144 158.542 15.1221C158.542 15.6689 158.508 16.2158 158.439 16.7627H146.716V13.7549H154.611C154.611 13.1624 154.509 12.5928 154.304 12.0459C154.121 11.499 153.837 10.9977 153.449 10.542C153.085 10.0635 152.652 9.66471 152.15 9.3457C151.649 9.02669 151.091 8.83301 150.476 8.76465V5.55176ZM150.339 21.7871C150.59 21.7871 150.897 21.7643 151.262 21.7188C151.649 21.6504 152.048 21.5479 152.458 21.4111C152.891 21.2516 153.312 21.0579 153.723 20.8301C154.156 20.6022 154.532 20.3288 154.851 20.0098L156.354 22.2998C155.603 23.234 154.725 23.9404 153.723 24.4189C152.72 24.8975 151.444 25.1367 149.895 25.1367C148.641 25.1367 147.468 24.8861 146.374 24.3848C145.28 23.8607 144.346 23.1543 143.571 22.2656C142.797 21.377 142.181 20.3402 141.726 19.1553C141.27 17.9704 141.042 16.6943 141.042 15.3271C141.042 14.0283 141.247 12.7979 141.657 11.6357C142.09 10.4736 142.671 9.45964 143.4 8.59375C144.13 7.70508 144.973 6.9873 145.93 6.44043C146.91 5.89355 147.958 5.58594 149.074 5.51758V8.79883C148.231 8.95833 147.536 9.30013 146.989 9.82422C146.442 10.3483 146.009 10.9521 145.69 11.6357C145.394 12.2965 145.178 12.9801 145.041 13.6865C144.927 14.3929 144.87 14.9967 144.87 15.498C144.87 16.3867 144.973 17.2184 145.178 17.9932C145.406 18.7451 145.747 19.4059 146.203 19.9756C146.659 20.5225 147.217 20.9668 147.878 21.3086C148.562 21.6276 149.382 21.7871 150.339 21.7871ZM163.771 11.2256C163.771 10.3597 163.931 9.58496 164.25 8.90137C164.569 8.19499 165.013 7.60254 165.583 7.12402C166.153 6.62272 166.791 6.23535 167.497 5.96191C168.226 5.66569 168.978 5.4834 169.753 5.41504V8.83301C169.16 8.94694 168.693 9.1862 168.352 9.55078C168.033 9.91536 167.873 10.4281 167.873 11.0889C167.873 11.6357 168.044 12.0801 168.386 12.4219C168.75 12.7409 169.206 13.0257 169.753 13.2764V16.9336C169.366 16.8197 168.967 16.6943 168.557 16.5576C168.169 16.3981 167.782 16.2272 167.395 16.0449C166.187 15.4069 165.275 14.7347 164.66 14.0283C164.068 13.3219 163.771 12.3877 163.771 11.2256ZM175.188 9.79004C174.572 9.47103 173.911 9.23177 173.205 9.07227C172.521 8.91276 171.838 8.81022 171.154 8.76465V5.38086C172.18 5.42643 173.125 5.57454 173.991 5.8252C174.857 6.05306 175.7 6.42904 176.521 6.95312L175.188 9.79004ZM165.583 20.6934C166.039 21.0124 166.574 21.3086 167.189 21.582C167.827 21.8555 168.625 21.9922 169.582 21.9922H169.753V25.1709C169.183 25.1709 168.659 25.1481 168.181 25.1025C167.702 25.0798 167.224 25.0114 166.745 24.8975C166.289 24.7607 165.822 24.5785 165.344 24.3506C164.865 24.1227 164.364 23.8265 163.84 23.4619L165.583 20.6934ZM171.154 13.8232C171.838 14.0511 172.533 14.3018 173.239 14.5752C173.946 14.8486 174.584 15.1904 175.153 15.6006C175.746 16.0107 176.224 16.5234 176.589 17.1387C176.976 17.7311 177.17 18.4831 177.17 19.3945C177.17 20.2832 177.01 21.0579 176.691 21.7188C176.372 22.3796 175.939 22.9492 175.393 23.4277C174.868 23.9062 174.242 24.2822 173.513 24.5557C172.784 24.8291 171.997 25.0114 171.154 25.1025V21.8555C171.929 21.7188 172.521 21.4795 172.932 21.1377C173.365 20.7731 173.581 20.2946 173.581 19.7021C173.581 19.1097 173.342 18.654 172.863 18.335C172.408 17.9932 171.838 17.6969 171.154 17.4463V13.8232Z" fill="#A18A68"/>
</svg>
